HIERARCHY
ROOT Hips
{
	OFFSET -0.001795 -0.223333 0.028219
	CHANNELS 6 Xposition Yposition Zposition Zrotation Yrotation Xrotation 
	JOINT LeftUpLeg
	{
		OFFSET 0.069520 -0.091406 -0.006815
		CHANNELS 3 Zrotation Yrotation Xrotation
		JOINT LeftLeg
		{
			OFFSET 0.034277 -0.375199 -0.004496
			CHANNELS 3 Zrotation Yrotation Xrotation
			JOINT LeftFoot
			{
				OFFSET -0.013596 -0.397961 -0.043693
				CHANNELS 3 Zrotation Yrotation Xrotation
				JOINT LeftToe
				{
					OFFSET 0.026358 -0.055791 0.119288
					CHANNELS 3 Zrotation Yrotation Xrotation
					End Site
					{
						OFFSET 0.000000 0.000000 0.000000
					}
				}
			}
		}
	}
	JOINT RightUpLeg
	{
		OFFSET -0.067670 -0.090522 -0.004320
		CHANNELS 3 Zrotation Yrotation Xrotation
		JOINT RightLeg
		{
			OFFSET -0.038290 -0.382569 -0.008850
			CHANNELS 3 Zrotation Yrotation Xrotation
			JOINT RightFoot
			{
				OFFSET 0.015774 -0.398415 -0.042312
				CHANNELS 3 Zrotation Yrotation Xrotation
				JOINT RightToe
				{
					OFFSET -0.025372 -0.048144 0.123348
					CHANNELS 3 Zrotation Yrotation Xrotation
					End Site
					{
						OFFSET 0.000000 0.000000 0.000000
					}
				}
			}
		}
	}
	JOINT Spine
	{
		OFFSET -0.002533 0.108963 -0.026696
		CHANNELS 3 Zrotation Yrotation Xrotation
		JOINT Spine1
		{
			OFFSET 0.005487 0.135180 0.001092
			CHANNELS 3 Zrotation Yrotation Xrotation
			JOINT Spine2
			{
				OFFSET 0.001457 0.052922 0.025425
				CHANNELS 3 Zrotation Yrotation Xrotation
				JOINT Neck
				{
					OFFSET -0.002778 0.213870 -0.042857
					CHANNELS 3 Zrotation Yrotation Xrotation
					JOINT Head
					{
						OFFSET 0.005152 0.064970 0.051349
						CHANNELS 3 Zrotation Yrotation Xrotation
						End Site
						{
							OFFSET 0.000000 0.000000 0.000000
						}
					}
				}
				JOINT LeftShoulder
				{
					OFFSET 0.078845 0.121749 -0.034090
					CHANNELS 3 Zrotation Yrotation Xrotation
					JOINT LeftArm
					{
						OFFSET 0.090977 0.030469 -0.008868
						CHANNELS 3 Zrotation Yrotation Xrotation
						JOINT LeftForeArm
						{
							OFFSET 0.259612 -0.012772 -0.027456
							CHANNELS 3 Zrotation Yrotation Xrotation
							JOINT LeftHand
							{
								OFFSET 0.249234 0.008986 -0.001171
								CHANNELS 3 Zrotation Yrotation Xrotation
								End Site
								{
									OFFSET 0.000000 0.000000 0.000000
								}
							}
						}
					}
				}
				JOINT RightShoulder
				{
					OFFSET -0.081759 0.118833 -0.038615
					CHANNELS 3 Zrotation Yrotation Xrotation
					JOINT RightArm
					{
						OFFSET -0.096012 0.032551 -0.009143
						CHANNELS 3 Zrotation Yrotation Xrotation
						JOINT RightForeArm
						{
							OFFSET -0.253742 -0.013329 -0.021401
							CHANNELS 3 Zrotation Yrotation Xrotation
							JOINT RightHand
							{
								OFFSET -0.255298 0.007772 -0.005559
								CHANNELS 3 Zrotation Yrotation Xrotation
								End Site
								{
									OFFSET 0.000000 0.000000 0.000000
								}
							}
						}
					}
				}
			}
		}
	}
}
MOTION
Frames: 16
Frame Time: 0.050000
0.000000 0.942407 0.000000 -2.825245 -1.212118 4.535766 9.851606 -0.234221 -8.407614 -5.627718 0.672436 2.819154 6.689263 14.748789 6.957235 0.000000 0.000000 0.000000 -7.791655 0.712738 -12.786157 2.674902 -0.096035 10.125895 -2.011861 -7.718544 7.501788 0.000000 0.000000 0.000000 2.250404 -0.693696 10.573086 -1.814500 0.847476 3.022435 -2.308442 4.573000 8.646170 10.075753 -4.507305 -16.933492 0.000000 0.000000 0.000000 -27.144826 -14.195931 4.752908 -45.022477 -2.436172 -4.217876 -15.361105 -50.824144 8.904729 0.000000 0.000000 0.000000 28.645347 9.263523 5.373175 51.899829 6.956802 -3.004571 -1.532071 46.882501 1.920998 0.000000 0.000000 0.000000 
-0.017621 0.940893 -0.001087 -2.924739 -2.301903 4.948555 10.521644 -0.175992 -7.902509 -5.088348 0.598345 1.645496 7.747412 16.619691 8.493803 0.000000 0.000000 0.000000 -6.940116 0.803932 -12.651242 3.013306 -0.154085 9.200371 -1.596623 -6.576681 6.378684 0.000000 0.000000 0.000000 2.603532 -0.718226 10.395815 -1.003779 0.448536 3.558897 -2.740563 3.363942 7.646003 9.472758 -4.558430 -15.365456 0.000000 0.000000 0.000000 -27.821633 -13.061083 4.664670 -45.464445 -3.767944 -3.894462 -15.029685 -51.757008 9.177181 0.000000 0.000000 0.000000 28.190993 9.037059 4.448789 52.522147 5.990116 -3.116775 0.581799 48.707560 2.668345 0.000000 0.000000 0.000000 
-0.034955 0.942239 -0.003650 -2.500912 -3.081208 4.758147 10.991235 -0.114580 -8.455082 -4.822586 0.600092 3.787469 7.039439 15.335144 7.784552 0.000000 0.000000 0.000000 -5.936897 0.849263 -11.982447 2.706396 -0.108653 8.091257 -1.586022 -6.343365 5.611254 0.000000 0.000000 0.000000 3.044820 -0.746623 10.203279 -0.417680 0.163674 3.359142 -4.338272 3.274814 8.144502 9.124534 -4.580542 -14.282851 0.000000 0.000000 0.000000 -29.811023 -14.307563 5.649315 -42.796341 -6.176310 -2.906727 -12.887541 -51.828611 8.207999 0.000000 0.000000 0.000000 27.960283 9.982734 4.990075 53.431772 6.373002 -3.006480 0.685711 48.434133 2.671530 0.000000 0.000000 0.000000 
-0.051610 0.942607 -0.008052 -2.637283 -4.065763 5.177421 11.350947 -0.066317 -8.574225 -3.989145 0.479202 2.539394 7.713597 16.508302 9.545697 0.000000 0.000000 0.000000 -4.468316 0.979874 -12.289360 2.466840 -0.069705 7.419709 -1.561542 -6.170137 5.093724 0.000000 0.000000 0.000000 3.511220 -0.835196 10.805494 -0.496060 0.216524 3.784147 -4.439148 2.243741 7.671308 9.134277 -4.929357 -13.031852 0.000000 0.000000 0.000000 -29.747120 -15.281805 6.954849 -42.936649 -8.241269 -2.376316 -12.472067 -53.840574 8.591473 0.000000 0.000000 0.000000 29.141297 11.371646 5.322968 52.167560 7.282884 -2.346809 -0.274587 49.495467 2.044499 0.000000 0.000000 0.000000 
-0.066911 0.944645 -0.013945 -2.727900 -5.682237 4.950706 11.694562 0.039627 -9.283350 -3.256800 0.395616 4.608695 7.583789 16.185233 9.605172 0.000000 0.000000 0.000000 -3.617313 1.072412 -12.567119 2.762228 -0.094409 7.407425 -1.067987 -5.250180 5.237168 0.000000 0.000000 0.000000 3.482731 -0.903011 12.339771 -0.037317 0.009536 3.307079 -4.862669 2.203922 8.210257 8.589188 -4.656014 -13.041533 0.000000 0.000000 0.000000 -30.494824 -17.587557 8.991908 -41.027835 -12.695680 -1.016647 -7.724777 -55.649882 6.551969 0.000000 0.000000 0.000000 27.685829 12.828243 5.908844 53.473940 9.019149 -1.577845 -1.659857 50.028498 1.354551 0.000000 0.000000 0.000000 
-0.079611 0.946718 -0.020038 -3.163391 -7.752920 5.288242 12.450643 0.201553 -9.977968 -3.264456 0.430547 5.762852 8.133041 16.956270 9.850871 0.000000 0.000000 0.000000 -2.280613 1.218718 -13.007635 2.694601 -0.064603 7.080912 -0.566951 -4.146709 4.937388 0.000000 0.000000 0.000000 3.521628 -0.954713 13.673428 -0.241596 0.142314 3.239115 -4.347853 1.749600 7.789959 7.436892 -4.028752 -12.960771 0.000000 0.000000 0.000000 -30.006525 -18.845282 10.500286 -41.246264 -17.123255 0.257052 -4.234859 -55.275767 4.909946 0.000000 0.000000 0.000000 27.589114 13.852629 5.920775 52.888041 9.872428 -0.970446 -1.594402 50.303527 1.115220 0.000000 0.000000 0.000000 
-0.089441 0.948026 -0.025124 -3.206293 -8.974157 5.980087 12.348954 0.251512 -10.725866 -3.302320 0.458875 6.079456 8.236720 17.022768 10.496279 0.000000 0.000000 0.000000 -1.614455 1.380454 -14.030091 2.885252 -0.075706 7.042280 -0.080360 -3.367035 5.347897 0.000000 0.000000 0.000000 3.360454 -0.962065 14.613411 -0.193302 0.135709 3.025413 -4.603201 1.352952 7.867754 6.929820 -3.775286 -12.995694 0.000000 0.000000 0.000000 -28.958139 -20.607791 11.999289 -41.133760 -21.386142 1.556226 0.986020 -55.690012 2.369547 0.000000 0.000000 0.000000 27.806246 14.908106 6.234465 52.092428 10.895600 -0.411518 -3.418212 51.131925 0.137969 0.000000 0.000000 0.000000 
-0.096581 0.949067 -0.029010 -3.378317 -10.497953 6.729083 12.440130 0.317809 -10.937834 -3.609148 0.537730 5.929730 8.498781 17.353679 10.251321 0.000000 0.000000 0.000000 -0.886237 1.515967 -14.644921 2.895432 -0.070451 6.568859 0.497960 -2.432563 5.759844 0.000000 0.000000 0.000000 2.894701 -0.887364 15.137993 -0.429194 0.275395 2.959561 -4.178289 1.094246 7.804469 5.474231 -2.956132 -12.666800 0.000000 0.000000 0.000000 -28.367275 -22.313277 13.543806 -40.149736 -25.707295 2.791370 5.357473 -54.018209 0.210396 0.000000 0.000000 0.000000 27.295445 15.976598 6.471949 50.882947 12.235960 0.280903 -4.972933 51.576704 -0.777022 0.000000 0.000000 0.000000 
-0.101677 0.949373 -0.031239 -3.619465 -11.388089 7.455693 12.368648 0.338316 -11.083382 -3.565342 0.529911 5.151788 8.730713 17.634799 10.919187 0.000000 0.000000 0.000000 -0.458012 1.620776 -15.177711 2.589489 -0.044095 5.799098 1.212302 -1.444802 6.619611 0.000000 0.000000 0.000000 2.606902 -0.831368 15.223757 -0.252218 0.205070 3.078290 -4.286150 0.732457 7.526792 5.119465 -2.709342 -13.307344 0.000000 0.000000 0.000000 -28.291411 -23.798194 14.887533 -38.794551 -29.209456 3.702095 9.574215 -51.472530 -1.763162 0.000000 0.000000 0.000000 27.213831 17.224436 6.959242 49.809635 13.237977 0.802819 -7.437469 50.850551 -2.031429 0.000000 0.000000 0.000000 
-0.105404 0.949671 -0.032255 -3.755516 -12.143969 8.004132 12.340594 0.348935 -10.944136 -3.359225 0.486170 4.042406 9.242713 18.330272 12.169537 0.000000 0.000000 0.000000 0.022931 1.724190 -15.654083 2.409393 -0.018083 5.653934 1.532323 -1.216500 7.267590 0.000000 0.000000 0.000000 2.260830 -0.763507 15.262567 -0.485992 0.328203 2.828428 -4.137670 0.401047 7.876197 4.316844 -2.253967 -13.497113 0.000000 0.000000 0.000000 -28.210328 -25.432334 16.359145 -36.849945 -32.383901 4.273107 12.665945 -48.975716 -3.019308 0.000000 0.000000 0.000000 26.933227 18.001753 7.152716 48.746904 14.591462 1.371417 -10.032703 49.232731 -3.201500 0.000000 0.000000 0.000000 
-0.108232 0.949490 -0.032199 -4.011022 -12.826702 8.675910 12.303040 0.351884 -10.763785 -3.202108 0.451299 2.660899 9.566168 18.733431 12.882147 0.000000 0.000000 0.000000 0.256270 1.801007 -16.044023 2.317982 -0.021222 5.050468 1.865406 -0.997261 7.955312 0.000000 0.000000 0.000000 2.115819 -0.729124 15.245883 -0.317384 0.253877 2.695463 -4.303561 0.095431 7.869151 3.553130 -1.773771 -14.042540 0.000000 0.000000 0.000000 -27.756110 -26.602593 17.334882 -35.395979 -35.168646 4.793478 14.617012 -46.333591 -3.643712 0.000000 0.000000 0.000000 26.325572 19.118998 7.593614 47.839334 15.730630 1.848278 -12.370414 47.062321 -4.096066 0.000000 0.000000 0.000000 
-0.110407 0.949422 -0.031591 -4.126168 -13.200804 9.192845 12.382949 0.373374 -11.011976 -3.096502 0.433590 2.199991 9.680299 18.860565 13.084825 0.000000 0.000000 0.000000 0.325578 1.843245 -16.295845 2.489118 -0.053199 4.553834 1.745045 -1.530937 8.344783 0.000000 0.000000 0.000000 1.534438 -0.628653 15.494803 -0.351669 0.272691 2.538764 -4.372066 -0.155172 7.958487 2.376351 -1.011271 -14.882052 0.000000 0.000000 0.000000 -27.171155 -28.199020 18.475706 -34.155776 -37.807222 5.275742 15.933420 -43.852169 -3.945715 0.000000 0.000000 0.000000 26.053040 20.269474 8.165796 46.458140 17.042136 2.309943 -15.216931 42.894991 -4.763888 0.000000 0.000000 0.000000 
-0.112021 0.949291 -0.030681 -4.375627 -13.286834 9.807855 12.432718 0.371693 -11.143877 -3.224869 0.446536 1.132595 9.890239 19.182048 13.114871 0.000000 0.000000 0.000000 0.489549 1.852176 -16.271907 2.418927 -0.070339 3.741008 1.806105 -1.526632 8.526426 0.000000 0.000000 0.000000 1.166304 -0.567763 15.739537 -0.658396 0.423950 2.516468 -3.950554 -0.360860 8.061911 1.858429 -0.685665 -15.477943 0.000000 0.000000 0.000000 -25.959254 -29.845389 19.386759 -33.659554 -40.478302 5.965650 17.730641 -41.444177 -4.368065 0.000000 0.000000 0.000000 25.597516 21.666744 8.920934 45.385391 18.183462 2.683194 -18.175901 37.829060 -5.085613 0.000000 0.000000 0.000000 
-0.113142 0.948902 -0.029853 -4.593668 -13.423322 10.264441 12.528014 0.398092 -11.576459 -3.577039 0.500897 1.146470 10.001732 19.362943 12.886150 0.000000 0.000000 0.000000 0.709580 1.887499 -16.400493 2.380843 -0.077380 3.330804 1.473816 -2.553989 9.057968 0.000000 0.000000 0.000000 0.304081 -0.409885 16.248138 -0.632912 0.422473 2.770635 -4.024354 0.010192 8.218848 1.052149 -0.120728 -16.096144 0.000000 0.000000 0.000000 -24.987629 -31.469397 20.044957 -32.834585 -41.534451 6.098762 19.118672 -41.090957 -4.859476 0.000000 0.000000 0.000000 25.376257 22.598739 9.694001 44.032630 18.465835 2.606144 -19.896068 33.826381 -4.902652 0.000000 0.000000 0.000000 
-0.113699 0.948684 -0.029030 -4.890345 -13.399960 10.845638 12.591102 0.413834 -12.078717 -3.735628 0.519945 0.729967 9.950626 19.284219 12.782079 0.000000 0.000000 0.000000 0.847587 1.921398 -16.571006 2.095421 -0.053862 3.185234 1.357185 -2.808773 9.072204 0.000000 0.000000 0.000000 -0.148690 -0.321108 17.185769 -0.867198 0.545623 3.025540 -3.972987 0.043063 8.318708 0.786415 0.078196 -16.665448 0.000000 0.000000 0.000000 -23.623657 -32.506076 20.255830 -32.393157 -42.644931 6.346101 19.949568 -40.824801 -5.126068 0.000000 0.000000 0.000000 25.098532 23.562493 10.359655 43.352637 18.807247 2.638566 -20.533808 29.715689 -4.349678 0.000000 0.000000 0.000000 
-0.114005 0.947789 -0.028374 -5.176600 -13.271383 11.381257 12.829131 0.455093 -12.691860 -4.223292 0.591691 0.802032 10.343390 19.927465 12.674229 0.000000 0.000000 0.000000 1.147290 1.993682 -16.923628 2.005714 -0.046601 3.146182 0.654971 -4.265551 9.113430 0.000000 0.000000 0.000000 -1.041308 -0.128323 18.260583 -0.953750 0.587988 3.098473 -4.034051 0.351577 8.535144 0.273096 0.441343 -16.919547 0.000000 0.000000 0.000000 -22.653255 -33.544768 20.463502 -31.650871 -42.434647 6.101104 21.277541 -42.472421 -5.866330 0.000000 0.000000 0.000000 24.867805 23.661898 10.626342 43.057142 18.608688 2.458130 -20.579932 27.815574 -3.993465 0.000000 0.000000 0.000000 
